<svg width="18" height="18" viewBox="0 0 18 18" fill="none" xmlns="http://www.w3.org/2000/svg">
<g clip-path="url(#clip0_63_1207)">
<path d="M12 14.5L14.5 12L3 0.5H0.5V3L12 14.5Z" fill="#CCD6DD"/>
<path d="M0.5 0.5V3L12 14.5L13.25 13.25L0.5 0.5Z" fill="#9AAAB4"/>
<path d="M16.7121 16.404C16.8541 16.262 16.9411 16.091 16.9776 15.92L14.3566 12.8225L14.0061 12.4715C13.7241 12.1895 13.2211 12.235 12.8821 12.574L12.5751 12.88C12.2366 13.2185 12.1911 13.7215 12.4731 14.0035L12.8436 14.374L15.9186 16.9765C16.0911 16.9405 16.2626 16.853 16.4056 16.7105L16.7121 16.404Z" fill="#D99E82"/>
<path d="M16.712 16.404C16.854 16.262 16.941 16.091 16.9775 15.92L16.3065 15.127L15.938 16.969C16.1035 16.9305 16.2685 16.8475 16.4055 16.71L16.712 16.404ZM15.057 13.651L14.613 15.8715L15.243 16.4045L15.653 14.3545L15.057 13.651ZM14.3565 12.8225L14.006 12.4715C13.9582 12.4254 13.9031 12.3876 13.843 12.3595L13.354 14.8055L13.984 15.3385L14.4625 12.947L14.3565 12.8225ZM13.156 12.3785C13.0543 12.428 12.9617 12.4943 12.882 12.5745L12.575 12.88C12.4544 12.9991 12.3665 13.1472 12.3195 13.31C12.2485 13.565 12.2965 13.8275 12.473 14.0035L12.771 14.3015L13.156 12.3785C13.156 12.378 13.156 12.378 13.156 12.3785Z" fill="#BF6952"/>
<path d="M16.625 18C17.3844 18 18 17.3844 18 16.625C18 15.8656 17.3844 15.25 16.625 15.25C15.8656 15.25 15.25 15.8656 15.25 16.625C15.25 17.3844 15.8656 18 16.625 18Z" fill="#8A4633"/>
<path d="M14.813 11.162C14.8611 11.21 14.8992 11.2669 14.9252 11.3297C14.9512 11.3924 14.9646 11.4596 14.9646 11.5275C14.9646 11.5954 14.9512 11.6626 14.9252 11.7253C14.8992 11.7881 14.8611 11.845 14.813 11.893L11.767 14.939C11.719 14.987 11.6621 15.0251 11.5993 15.051C11.5366 15.077 11.4694 15.0904 11.4015 15.0904C11.3337 15.0904 11.2664 15.077 11.2037 15.051C11.141 15.0251 11.084 14.987 11.036 14.939C10.988 14.891 10.95 14.834 10.924 14.7713C10.898 14.7086 10.8846 14.6414 10.8846 14.5735C10.8846 14.5056 10.898 14.4384 10.924 14.3757C10.95 14.313 10.988 14.256 11.036 14.208L14.082 11.162C14.13 11.114 14.187 11.0758 14.2497 11.0498C14.3124 11.0238 14.3796 11.0104 14.4475 11.0104C14.5154 11.0104 14.5827 11.0238 14.6454 11.0498C14.7081 11.0758 14.7651 11.114 14.813 11.162Z" fill="#FFAC33"/>
<path d="M11.036 15.8135C11.5193 15.8135 11.911 15.4217 11.911 14.9385C11.911 14.4553 11.5193 14.0635 11.036 14.0635C10.5528 14.0635 10.161 14.4553 10.161 14.9385C10.161 15.4217 10.5528 15.8135 11.036 15.8135Z" fill="#FFAC33"/>
<path d="M14.813 12.0365C15.2962 12.0365 15.688 11.6447 15.688 11.1615C15.688 10.6782 15.2962 10.2865 14.813 10.2865C14.3297 10.2865 13.938 10.6782 13.938 11.1615C13.938 11.6447 14.3297 12.0365 14.813 12.0365Z" fill="#FFAC33"/>
<path d="M11.036 15.4385C11.3122 15.4385 11.536 15.2146 11.536 14.9385C11.536 14.6624 11.3122 14.4385 11.036 14.4385C10.7599 14.4385 10.536 14.6624 10.536 14.9385C10.536 15.2146 10.7599 15.4385 11.036 15.4385Z" fill="#FFCC4D"/>
<path d="M14.813 11.6615C15.0891 11.6615 15.313 11.4376 15.313 11.1615C15.313 10.8854 15.0891 10.6615 14.813 10.6615C14.5368 10.6615 14.313 10.8854 14.313 11.1615C14.313 11.4376 14.5368 11.6615 14.813 11.6615Z" fill="#FFCC4D"/>
<path d="M16.9515 14.671C16.9869 14.7064 17.015 14.7484 17.0342 14.7946C17.0533 14.8409 17.0632 14.8904 17.0632 14.9405C17.0632 14.9906 17.0533 15.0401 17.0342 15.0864C17.015 15.1326 16.9869 15.1746 16.9515 15.21L15.2135 16.9475C15.1781 16.9829 15.1361 17.011 15.0898 17.0301C15.0436 17.0493 14.994 17.0591 14.944 17.0591C14.8939 17.0591 14.8444 17.0493 14.7981 17.0301C14.7519 17.011 14.7099 16.9829 14.6745 16.9475C14.6391 16.9121 14.611 16.8701 14.5919 16.8239C14.5727 16.7776 14.5629 16.7281 14.5629 16.678C14.5629 16.628 14.5727 16.5784 14.5919 16.5322C14.611 16.4859 14.6391 16.4439 14.6745 16.4085L16.4125 14.671C16.4479 14.6356 16.4899 14.6075 16.5361 14.5883C16.5824 14.5692 16.6319 14.5593 16.682 14.5593C16.7321 14.5593 16.7816 14.5692 16.8279 14.5883C16.8741 14.6075 16.9161 14.6356 16.9515 14.671Z" fill="#FFAC33"/>
<path d="M6 14.5L3.5 12L15 0.5H17.5V3L6 14.5Z" fill="#CCD6DD"/>
<path d="M17.5 0.5V3L6 14.5L4.75 13.25L17.5 0.5Z" fill="#9AAAB4"/>
<path d="M1.28796 16.404C1.15459 16.2717 1.06238 16.1036 1.02246 15.92L3.64346 12.8225L3.99396 12.4715C4.27596 12.1895 4.77896 12.235 5.11796 12.574L5.42446 12.88C5.76296 13.2185 5.80846 13.7215 5.52646 14.0035L5.15596 14.374L2.08096 16.9765C1.89625 16.937 1.72703 16.8446 1.59396 16.7105L1.28796 16.404Z" fill="#D99E82"/>
<path d="M1.28796 16.404C1.15459 16.2717 1.06238 16.1036 1.02246 15.92L1.69346 15.127L2.06196 16.969C1.88487 16.9283 1.72284 16.8386 1.59446 16.71L1.28796 16.404ZM2.94296 13.651L3.38696 15.8715L2.75696 16.4045L2.34696 14.3545L2.94296 13.651ZM3.64346 12.8225L3.99396 12.4715C4.04172 12.4254 4.09681 12.3876 4.15696 12.3595L4.64596 14.8055L4.01596 15.3385L3.53746 12.947L3.64346 12.8225ZM4.84396 12.3785C4.94146 12.426 5.03496 12.491 5.11796 12.5745L5.42446 12.8805C5.55146 13.0075 5.63696 13.1575 5.67996 13.3105C5.75096 13.5655 5.70296 13.828 5.52646 14.004L5.22846 14.302L4.84396 12.3785C4.84396 12.378 4.84396 12.378 4.84396 12.3785Z" fill="#BF6952"/>
<path d="M1.375 18C2.13439 18 2.75 17.3844 2.75 16.625C2.75 15.8656 2.13439 15.25 1.375 15.25C0.615608 15.25 0 15.8656 0 16.625C0 17.3844 0.615608 18 1.375 18Z" fill="#8A4633"/>
<path d="M3.18696 11.162C3.13891 11.21 3.1008 11.2669 3.07479 11.3297C3.04879 11.3924 3.0354 11.4596 3.0354 11.5275C3.0354 11.5954 3.04879 11.6626 3.07479 11.7253C3.1008 11.7881 3.13891 11.845 3.18696 11.893L6.23296 14.939C6.28096 14.987 6.33794 15.0251 6.40065 15.051C6.46336 15.077 6.53058 15.0904 6.59846 15.0904C6.66634 15.0904 6.73355 15.077 6.79627 15.051C6.85898 15.0251 6.91596 14.987 6.96396 14.939C7.01196 14.891 7.05003 14.834 7.07601 14.7713C7.10198 14.7086 7.11535 14.6414 7.11535 14.5735C7.11535 14.5056 7.10198 14.4384 7.07601 14.3757C7.05003 14.313 7.01196 14.256 6.96396 14.208L3.91796 11.162C3.86999 11.114 3.81301 11.0758 3.7503 11.0498C3.68758 11.0238 3.62035 11.0104 3.55246 11.0104C3.48456 11.0104 3.41734 11.0238 3.35462 11.0498C3.2919 11.0758 3.23493 11.114 3.18696 11.162Z" fill="#FFAC33"/>
<path d="M6.96399 15.8135C7.44724 15.8135 7.83899 15.4217 7.83899 14.9385C7.83899 14.4553 7.44724 14.0635 6.96399 14.0635C6.48074 14.0635 6.08899 14.4553 6.08899 14.9385C6.08899 15.4217 6.48074 15.8135 6.96399 15.8135Z" fill="#FFAC33"/>
<path d="M3.18701 12.0365C3.67026 12.0365 4.06201 11.6447 4.06201 11.1615C4.06201 10.6782 3.67026 10.2865 3.18701 10.2865C2.70376 10.2865 2.31201 10.6782 2.31201 11.1615C2.31201 11.6447 2.70376 12.0365 3.18701 12.0365Z" fill="#FFAC33"/>
<path d="M6.96399 15.4385C7.24013 15.4385 7.46399 15.2146 7.46399 14.9385C7.46399 14.6624 7.24013 14.4385 6.96399 14.4385C6.68785 14.4385 6.46399 14.6624 6.46399 14.9385C6.46399 15.2146 6.68785 15.4385 6.96399 15.4385Z" fill="#FFCC4D"/>
<path d="M3.18701 11.6615C3.46315 11.6615 3.68701 11.4376 3.68701 11.1615C3.68701 10.8854 3.46315 10.6615 3.18701 10.6615C2.91087 10.6615 2.68701 10.8854 2.68701 11.1615C2.68701 11.4376 2.91087 11.6615 3.18701 11.6615Z" fill="#FFCC4D"/>
<path d="M1.04845 14.671C1.01305 14.7064 0.984958 14.7484 0.965794 14.7946C0.946631 14.8409 0.936768 14.8904 0.936768 14.9405C0.936768 14.9906 0.946631 15.0401 0.965794 15.0864C0.984958 15.1326 1.01305 15.1746 1.04845 15.21L2.78645 16.9475C2.82184 16.9829 2.86386 17.011 2.9101 17.0301C2.95634 17.0493 3.0059 17.0591 3.05595 17.0591C3.106 17.0591 3.15556 17.0493 3.2018 17.0301C3.24805 17.011 3.29006 16.9829 3.32545 16.9475C3.36084 16.9121 3.38892 16.8701 3.40807 16.8239C3.42722 16.7776 3.43708 16.7281 3.43708 16.678C3.43708 16.628 3.42722 16.5784 3.40807 16.5322C3.38892 16.4859 3.36084 16.4439 3.32545 16.4085L1.58745 14.671C1.55207 14.6356 1.51006 14.6075 1.46381 14.5883C1.41757 14.5692 1.36801 14.5593 1.31795 14.5593C1.2679 14.5593 1.21833 14.5692 1.17209 14.5883C1.12585 14.6075 1.08383 14.6356 1.04845 14.671Z" fill="#FFAC33"/>
</g>
<defs>
<clipPath id="clip0_63_1207">
<rect width="18" height="18" fill="white"/>
</clipPath>
</defs>
</svg>
